<?xml version="1.0" encoding="iso-8859-1"?>
<!-- Generator: Adobe Illustrator 19.0.0, SVG Export Plug-In . SVG Version: 6.00 Build 0)  -->
<svg version="1.1" id="Capa_1" xmlns="http://www.w3.org/2000/svg" xmlns:xlink="http://www.w3.org/1999/xlink" x="0px" y="0px"
	 viewBox="0 0 471.014 471.014" style="enable-background:new 0 0 471.014 471.014;" xml:space="preserve">
<g>
	<path style="fill:#FF8882;" d="M383.91,205.881c-0.161,8.592-0.79,17.185-1.905,25.737c-0.493,3.778-3.718,6.531-7.428,6.531
		c-0.323,0-0.65-0.021-0.979-0.063c-0.04-0.005-0.078-0.016-0.118-0.021c-0.808,4.92-1.789,9.835-2.933,14.74
		c0.043,0.011,0.087,0.016,0.13,0.028c4,1.074,6.373,5.188,5.3,9.188c-2.665,9.929-6.01,19.776-9.942,29.27
		c-19.114,46.147-51.61,84.142-93.296,109.848c44.891-7.531,86.164-28.654,118.845-61.337
		c39.887-39.887,62.559-92.355,64.321-148.465C431.148,192.117,406.987,196.998,383.91,205.881z"/>
	<path style="fill:#FF8882;" d="M198.366,401.152c-24.299-15.031-45.734-34.395-63.105-57.178c-2.511-3.294-1.877-8,1.417-10.511
		c0.031-0.024,0.064-0.042,0.095-0.065c-2.89-4.063-5.651-8.247-8.291-12.536c-0.039,0.023-0.074,0.05-0.114,0.073
		c-1.173,0.67-2.451,0.988-3.712,0.988c-2.604,0-5.136-1.358-6.52-3.782c-4.918-8.614-9.345-17.648-13.157-26.852
		c-11.423-27.579-17.404-56.478-17.965-85.442c-23.048-8.861-47.182-13.73-71.904-14.511c1.762,56.11,24.433,108.578,64.32,148.465
		C112.135,372.505,153.442,393.634,198.366,401.152z"/>
	<path style="fill:#FFB8B4;" d="M367.13,229.678c4.652-35.682,0.382-72.132-12.349-105.906
		c-22.541,10.183-42.97,23.918-60.873,40.927c10.565,26.972,16.098,55.959,16.098,85.808c0,49.996-15.512,97.575-44.238,137.3
		c38.577-24.056,68.656-59.401,86.407-102.258c3.683-8.892,6.815-18.116,9.312-27.418c1.063-3.957,5.099-6.312,9.059-5.328
		c1.145-4.905,2.125-9.82,2.933-14.74C369.436,237.471,366.6,233.745,367.13,229.678z"/>
	<path style="fill:#FF8882;" d="M193.248,164.822c-0.162,0.61-0.403,1.201-0.722,1.762c-10.831,26.261-16.519,54.648-16.519,83.923
		c0,56.409,21.07,109.541,59.5,150.462c38.43-40.921,59.5-94.053,59.5-150.462c0-29.274-5.688-57.66-16.519-83.921
		c-0.319-0.562-0.561-1.155-0.723-1.766c-10.005-23.666-24.219-45.567-42.258-64.776
		C217.467,119.254,203.253,141.155,193.248,164.822z"/>
	<path style="fill:#FFB8B4;" d="M147.19,334.88c15.995,20.979,35.683,38.852,57.979,52.824
		C176.491,348,161.007,300.46,161.007,250.507c0-29.849,5.533-58.836,16.098-85.808c-17.904-17.01-38.333-30.746-60.876-40.928
		c-9.315,24.648-14.065,50.319-14.253,76.01c0.084,0.627,0.088,1.269,0.008,1.911c0.043,28.407,5.651,56.81,16.854,83.857
		c3.572,8.623,7.718,17.086,12.325,25.154c2.031,3.557,0.826,8.073-2.681,10.159c2.64,4.289,5.402,8.473,8.291,12.536
		C140.063,330.967,144.702,331.615,147.19,334.88z"/>
	<path style="fill:#1C1918;" d="M463.53,176.225c-0.182,0-0.358-0.001-0.54-0.001c-27.241,0-53.871,4.627-79.32,13.753
		c-1.33-27.039-7.334-53.819-17.844-79.036c-1.589-3.812-5.959-5.622-9.777-4.05c-25.333,10.427-48.307,24.94-68.441,43.201
		c-11.482-24.264-27.211-46.614-46.81-66.125c-2.926-2.912-7.656-2.912-10.583,0c-19.599,19.511-35.328,41.862-46.809,66.125
		c-20.135-18.26-43.109-32.773-68.441-43.201c-3.817-1.572-8.188,0.238-9.777,4.05c-10.64,25.524-16.618,52.191-17.941,79
		c-25.591-9.167-52.378-13.793-79.763-13.716c-4.129,0.009-7.474,3.354-7.483,7.483c-0.141,62.976,24.301,122.177,68.824,166.7
		c44.381,44.381,103.577,68.823,166.683,68.823c63.106,0,122.302-24.442,166.683-68.823c44.521-44.522,68.964-103.725,68.824-166.7
		C471.005,179.579,467.659,176.234,463.53,176.225z M87.015,205.848c0.56,28.963,6.541,57.863,17.965,85.442
		c3.813,9.203,8.239,18.237,13.157,26.852c1.384,2.424,3.916,3.782,6.52,3.782c1.261,0,2.539-0.318,3.712-0.988
		c0.039-0.022,0.075-0.05,0.114-0.073c3.507-2.085,4.712-6.602,2.681-10.159c-4.607-8.068-8.753-16.531-12.325-25.154
		c-11.203-27.047-16.811-55.45-16.854-83.857c0.08-0.643,0.077-1.284-0.008-1.911c0.188-25.692,4.938-51.362,14.253-76.01
		c22.542,10.182,42.972,23.918,60.876,40.928c-10.565,26.972-16.098,55.959-16.098,85.808c0,49.953,15.484,97.493,44.163,137.197
		c-22.296-13.972-41.984-31.844-57.979-52.824c-2.489-3.265-7.127-3.913-10.416-1.482c-0.031,0.023-0.064,0.042-0.095,0.065
		c-3.294,2.511-3.928,7.217-1.417,10.511c17.37,22.783,38.806,42.147,63.105,57.178c-44.924-7.518-86.231-28.646-118.935-61.351
		c-39.887-39.887-62.558-92.355-64.32-148.465C39.833,192.117,63.967,196.987,87.015,205.848z M277.765,164.82
		c0.162,0.611,0.404,1.204,0.723,1.766c10.831,26.26,16.519,54.646,16.519,83.921c0,56.409-21.07,109.541-59.5,150.462
		c-38.43-40.921-59.5-94.053-59.5-150.462c0-29.275,5.688-57.662,16.519-83.923c0.318-0.561,0.56-1.153,0.722-1.762
		c10.005-23.667,24.219-45.568,42.259-64.778C253.546,119.254,267.76,141.154,277.765,164.82z M272.737,401.138
		c41.686-25.707,74.182-63.701,93.296-109.848c3.933-9.493,7.277-19.341,9.942-29.27c1.073-4.001-1.3-8.114-5.3-9.188
		c-0.043-0.011-0.087-0.017-0.13-0.028c-3.96-0.984-7.996,1.371-9.059,5.328c-2.496,9.302-5.629,18.526-9.312,27.418
		c-17.752,42.857-47.83,78.203-86.407,102.258c28.727-39.725,44.238-87.304,44.238-137.3c0-29.849-5.533-58.836-16.098-85.808
		c17.902-17.009,38.332-30.744,60.873-40.927c12.73,33.774,17.001,70.225,12.349,105.906c-0.53,4.067,2.306,7.792,6.349,8.386
		c0.04,0.006,0.078,0.016,0.118,0.021c0.329,0.042,0.656,0.063,0.979,0.063c3.71,0,6.935-2.753,7.428-6.531
		c1.115-8.552,1.744-17.145,1.905-25.737c23.077-8.883,47.238-13.763,71.993-14.544c-1.763,56.11-24.435,108.578-64.321,148.465
		C358.901,372.484,317.628,393.607,272.737,401.138z"/>
	<circle style="fill:#1C1918;" cx="235.507" cy="59.282" r="7.5"/>
	<circle style="fill:#1C1918;" cx="166.747" cy="66.055" r="7.5"/>
	<circle style="fill:#1C1918;" cx="304.266" cy="66.055" r="7.5"/>
</g>
<g>
</g>
<g>
</g>
<g>
</g>
<g>
</g>
<g>
</g>
<g>
</g>
<g>
</g>
<g>
</g>
<g>
</g>
<g>
</g>
<g>
</g>
<g>
</g>
<g>
</g>
<g>
</g>
<g>
</g>
</svg>
